<?xml version="1.0" standalone="no"?>
<!DOCTYPE svg PUBLIC "-//W3C//DTD SVG 1.1//EN" "http://www.w3.org/Graphics/SVG/1.1/DTD/svg11.dtd" >
<svg xmlns="http://www.w3.org/2000/svg">
<metadata>
This is a custom SVG webfont generated by Font Squirrel.
Copyright   : Generated by Fontographer 40
</metadata>
<defs>
<font id="webfontlC3a4dkA" horiz-adv-x="2510" >
<font-face units-per-em="2048" ascent="1638" descent="-410" />
<missing-glyph horiz-adv-x="530" />
<glyph unicode=" "  horiz-adv-x="530" />
<glyph unicode="&#x09;" horiz-adv-x="530" />
<glyph unicode="&#xa0;" horiz-adv-x="530" />
<glyph unicode="!" horiz-adv-x="407" d="M88 410q0 190 37 405q43 248 94 248q18 0 35 -16q14 -14 14 -35q0 -6 -2 -11q-86 -231 -86 -593q0 -217 84 -277q27 -27 8 -43q-10 -8 -41 4q-57 25 -100 115q-35 78 -41 137q-2 19 -2 66zM150 -88q0 53 61 53q66 0 65 -49q0 -18 -24 -33q-27 -16 -43 -16q-59 0 -59 45z " />
<glyph unicode="&#x22;" horiz-adv-x="413" d="M43 592q0 15 18 31q55 43 56 163q0 18 -4 48q-2 12 20 32q23 18 47 19q37 0 37 -54q0 -63 -35 -135q-35 -78 -90 -118q-10 -8 -24 -9q-25 0 -25 23zM174 592q0 15 19 31q53 41 53 163q0 33 -2 47.5t20 32.5q25 18 45 19q39 0 39 -54q0 -58 -37 -135q-37 -80 -88 -118 q-10 -8 -24 -9q-25 0 -25 23z" />
<glyph unicode="#" horiz-adv-x="1327" d="M18 764q0 23 27 35q147 59 401 100q258 41 486 41q190 0 325 -33q33 -10 33 -45q-4 -37 -33 -37h-8q-143 35 -375 35q-227 0 -450 -31q-221 -29 -365 -86q-12 -4 -16 -4q-25 0 -25 25zM27 459q0 23 28 33q156 63 402 102q258 41 485 41q190 0 326 -33q31 -8 30 -47 q0 -37 -30 -37q-2 0 -5 1t-6 1q-143 35 -372.5 35t-452.5 -31q-223 -33 -364 -88q-6 -2 -17 -2q-24 0 -24 25zM219 57q29 238 180 584q156 365 314 530q8 12 26 13q27 0 41 -21q16 -23 -2 -41q-156 -168 -315.5 -512t-188.5 -567q-4 -31 -26 -31q-35 0 -29 45zM608 125 q27 227 180 584q156 365 314 530q8 10 26 10q27 0 41 -18q16 -23 -2 -41q-154 -166 -315 -514q-160 -344 -188 -565q-4 -31 -27 -31q-35 0 -29 45z" />
<glyph unicode="$" horiz-adv-x="532" d="M-49 799q0 74 98 186q90 109 197 168q18 80 47 150q10 23 37 22q16 0 35 -14q15 -12 6 -31q-18 -47 -31 -90h20q25 0 70 -23q49 -29 49 -59q0 -41 -33 -41q-12 0 -38 16q-29 16 -50 21q-14 0 -45 -10q-35 -143 -55 -312q209 -18 209 -149q0 -80 -76 -156 q-61 -61 -160 -96q2 -70 15 -150q6 -37 -23 -36q-25 0 -30 32q-12 76 -15 140q-31 -6 -55 -7q-49 0 -90 29q-49 33 -49 90q0 18 20 53q23 35 47 35q10 0 15 -2q-8 -45 -13 -53q-6 -8 -6 -23q0 -43 55 -43q35 0 74 11q-4 125 6 258l-80 2q-39 2 -92 20q-59 25 -59 62zM49 825 q0 -39 139 -39q12 127 35 258q-76 -53 -121 -108q-53 -66 -53 -111zM233 475q168 63 168 146q0 41 -38.5 65.5t-73.5 24.5l-39 2q-15 -142 -17 -238z" />
<glyph unicode="%" horiz-adv-x="872" d="M-86 -162q0 10 6 23q90 207 301 491q225 303 428 494q-51 4 -74 10q-45 -156 -137 -176q-20 -4 -30 -4q-84 0 -84 102q0 66 36 133q41 74 72 74q33 0 33 -29q0 -8 -14 -28q-61 -80 -62 -146q0 -51 21 -51q66 0 108 143q-78 35 -74 97q2 53 60 53q80 0 82 -106 q37 -4 96 -5q31 0 43 2q61 51 121 93q10 8 26 8q33 0 43 -25q12 -25 -24 -55l-92 -72q-221 -176 -484 -504q-252 -316 -344 -528q-10 -27 -30 -27q-27 0 -27 33zM270 37q0 63 39 135q39 74 72 74t33 -31q0 -2 -37 -59q-39 -61 -39 -115q0 -49 20 -49q39 0 82 78 q37 70 37 112q0 51 -22 51q-16 0 -49 -28l-13 8q-10 6 -10 18q0 14 33 35q27 14 39 15q76 0 80 -107q0 -51 -39 -127q-51 -96 -109 -108q-10 -2 -31 -2q-86 0 -86 100zM498 973q0 -29 30 -41q-4 43 -20 43q-10 4 -10 -2z" />
<glyph unicode="&#x26;" horiz-adv-x="1034" d="M59 172q0 47 21 88q47 98 131 168t166 90q-172 80 -172 201q0 47 20 90q80 168 303 168q29 0 43 -2q52 -6 129 -49q94 -53 95 -107q0 -16 -19 -33q-20 -16 -39 -16q-20 0 -32 21q-66 121 -199 120q-156 0 -207 -112q-12 -29 -12 -51q0 -68 96 -130l156 -79q12 -6 59 -7 q53 0 66 -6q37 -14 36 -51q0 -35 -43 -35q-10 0 -16 2q-72 12 -96 13h-86q-65 3 -166 -56q-111 -66 -152 -149q-18 -37 -18 -72q0 -80 90 -141q82 -55 176 -68q41 -4 62 -4q162 0 251 103q96 109 41 290q-2 4 -2 13q0 12 5.5 17t15.5 3q23 -4 35 -39q27 -74 26 -143 q0 -172 -157 -262q-143 -80 -314 -60q-98 12 -190 93q-103 90 -103 192zM403 211q0 88 123 137l226 70q121 49 120 135q0 57 -55 90q-57 35 -57 43q0 29 35 29q43 0 96 -53q57 -61 57 -123q0 -98 -84 -158q-55 -40 -172 -68q-55 -12 -166 -43q-63 -25 -63 -65q0 -10 12 -35 q14 -29 14 -39q0 -27 -26 -27q-12 0 -31 37q-29 50 -29 70z" />
<glyph unicode="'" horiz-adv-x="276" d="M55 592q0 15 19 31q53 41 53 163q0 33 -2 47.5t20 32.5q25 18 48 19q37 0 36 -54q0 -58 -36 -135q-35 -78 -91 -118q-10 -8 -22 -9q-25 0 -25 23z" />
<glyph unicode="(" horiz-adv-x="452" d="M12 313q0 147 23 244q35 154 115 303q96 172 200 240q9 6 19 6q27 0 39 -33q14 -33 -5 -51q-221 -254 -282 -526q-27 -109 -27 -238q0 -315 195 -375q14 -25 14 -39q0 -43 -57 -30q-127 31 -187 186q-47 120 -47 313z" />
<glyph unicode=")" horiz-adv-x="450" d="M18 -176q0 10 9 18q219 256 292 576q27 109 27 237q0 315 -194 375q-14 25 -15 39q0 45 58 33q125 -27 186 -189q47 -121 47 -313q0 -150 -22 -242q-37 -162 -117 -305q-90 -166 -201 -237q-25 -14 -41 -15q-29 0 -29 23z" />
<glyph unicode="*" />
<glyph unicode="+" />
<glyph unicode="," horiz-adv-x="440" d="M70 -125q0 20 28 31q34 12 68 67q31 51 41 119q6 31 61 31q43 0 43 -37q-2 -51 -63 -127q-65 -80 -135 -104q-43 -15 -43 20z" />
<glyph unicode="-" horiz-adv-x="653" d="M20 403q6 29 142 60q94 20 168 26q61 6 112 -2q37 -8 88 -32q59 -33 52 -72l-27 -23q-25 8 -66 35q-27 16 -45 21q-31 6 -65 6q-63 0 -297 -68q-16 -4 -21 -4q-47 8 -41 53z" />
<glyph unicode="." horiz-adv-x="296" d="M117 41q0 51 51 51q78 0 78 -43q0 -68 -60 -67q-23 0 -45 16q-24 18 -24 43z" />
<glyph unicode="/" horiz-adv-x="872" d="M-86 -162q0 10 6 23q113 258 397 616q301 379 529 531q10 8 24 8q31 0 45.5 -26.5t-12.5 -45.5q-224 -154 -528 -516q-303 -362 -404 -596q-10 -27 -30 -27q-27 0 -27 33z" />
<glyph unicode="0" horiz-adv-x="821" d="M-49 287q-6 238 55 428q88 272 301 344q12 4 35 -6q27 -12 27 -33q0 -43 -72 -62q-129 -33 -219 -282q-49 -139 -49 -311q0 -131 53 -269q78 -195 227 -194q156 0 262 223q82 166 95 346q2 18 2 55q0 164 -54 293q-66 154 -182 154q-57 0 -88 -107q-12 -12 -26.5 -12 t-22.5 14q-8 12 -4 33q12 63 69 103q53 33 99 32q137 0 223 -184q70 -152 70 -313q0 -230 -111 -443q-135 -260 -356 -260q-145 0 -248 184q-82 144 -86 267z" />
<glyph unicode="1" horiz-adv-x="503" d="M-51 -158q0 43 205 123q-43 72 -43 168v119q0 225 63 491q35 143 35 189q-28 -6 -74 -74q-43 -66 -72 -65q-45 0 -45 38q0 41 97 121q90 76 131 76q29 0 51 -16q29 -23 29 -51q0 -25 -52 -205q-88 -313 -88 -590q0 -184 68 -184h84q23 0 63 -29q43 -31 43 -59l-4 -29 q-33 4 -67 29q-27 16 -66 16q-86 0 -266 -90q-45 -20 -51 -21q-41 0 -41 43z" />
<glyph unicode="2" horiz-adv-x="872" d="M-109 748q0 33 35 57l30.5 15l31.5 16q299 154 508 153q123 0 200 -55q88 -66 88 -191q0 -102 -131 -233q-78 -80 -278 -229l-275 -205q-119 -100 -118 -144q0 -10 28 -10q45 0 228 60q184 61 270 61q57 0 115 -31q74 -37 73 -96q0 -39 -41 -72h-51q27 59 27 68 q0 47 -142 47q-90 0 -200 -39l-191 -76q-63 -23 -100 -22q-35 0 -70 31q-33 31 -32 69q0 74 131 193q31 27 278 217q176 133 275 235q121 127 120 213q0 137 -153 138q-231 0 -531 -185q-61 -37 -71 -37q-54 1 -54 52z" />
<glyph unicode="3" horiz-adv-x="919" d="M-143 80q0 23 18 29q20 6 33 -17q40 -98 141 -153q96 -53 209 -54q156 0 309 86q174 94 174 230q0 152 -321 151q-35 0 -172 -22q-20 -4 -43 -4q-39 0 -39 28q0 45 65 64q59 12 127 33q154 51 312 149q195 127 194 236q0 74 -71 108q-68 33 -152 27q-178 -12 -332 -80 q-94 -41 -153 -92q-14 -14 -39 -15q-51 0 -51 43q0 66 188 140q197 78 381 77q315 0 315 -217q0 -143 -196 -272q-43 -31 -234 -127q291 -20 291 -235q0 -150 -182 -277q-172 -119 -322 -119q-342 0 -444 260q-6 13 -6 23z" />
<glyph unicode="4" horiz-adv-x="882" d="M-78 227q0 4 39 88l47 101q86 213 123 370q8 53 25 148q25 129 67 129q49 0 49 -68q0 -88 -84 -333q-86 -246 -147 -365q104 29 289 92q190 66 252 98q25 141 65 301q61 238 98 238q51 0 52 -49q0 -37 -62 -227q-53 -168 -63 -250l8 2q8 2 20 2q114 0 172 -98l-16 -58 q-66 68 -164 68q-4 0 -39 -15q-27 -176 -26 -217v-176q0 -147 51 -178q35 -23 70 -55q-49 -10 -62 -11q-84 0 -127 121q-27 82 -27 187q0 47 17 155q18 104 18 156q-150 -39 -168 -45q-98 -29 -163 -62q-41 -14 -160 -65q-72 -33 -92 -33q-62 0 -62 49z" />
<glyph unicode="5" horiz-adv-x="892" d="M-74 -70q0 14 8 47q8 27 27 50q28 37 43 36q39 0 25 -51q-20 -12 -29 -43v-18q0 -63 119 -64q176 0 375 131q213 139 256 308q8 27 8 57q0 78 -60 127q-55 47 -147 47q-172 0 -483 -180q-65 -37 -80 -37q-49 0 -49 33q0 22 43 92q94 152 143 348q0 2 3 12.5t5 16.5 l-14 -8q-33 -18 -53 -19q-47 0 -48 39q0 2 1 5t1 5q8 37 179 109q141 57 211 71q113 27 247 27q59 0 99 -39q31 -31 30 -71q0 -45 -34 -52q-16 -2 -27 11q-8 12 -2 28v10q0 39 -96 39q-141 0 -396 -114q-49 -188 -143 -363l-11 -22.5t-9 -16.5q268 154 452 154 q133 0 223 -55q96 -61 97 -181q0 -41 -13 -90q-55 -215 -299 -366q-215 -135 -417 -136q-185 0 -185 123z" />
<glyph unicode="6" horiz-adv-x="757" d="M-16 195q0 246 118 479q78 147 189 256q147 152 280 151q37 0 93 -20q63 -25 63 -66q2 -20 -11.5 -31.5t-39.5 -11.5q-6 0 -66 17q-55 16 -82 16q-84 0 -198 -127q-94 -102 -144 -211q-137 -315 -131 -477q6 -274 158 -274q70 0 166 90q82 76 127 159q92 174 88 297 q-4 145 -123 146q-115 0 -229 -160q-106 -147 -103 -281q0 -33 21 -71q23 -41 22 -43q0 -33 -35 -33q-33 0 -57 66q-20 49 -20 92q-4 170 112 325q127 170 295 170q96 0 150 -67q45 -57 49 -154q6 -180 -127 -385q-143 -223 -326 -223q-68 0 -121 35t-77 96q-41 107 -41 240 z" />
<glyph unicode="7" horiz-adv-x="710" d="M-37 1016q0 45 53 45q25 0 80 -17q49 -14 76 -14q322 -10 541 23q49 8 49 -35q0 -18 -8 -33q-2 0 -21.5 -9t-34.5 -18q-63 -37 -184 -194q-82 -109 -158 -236q-180 -313 -217 -548q-8 -49 -16 -109q-25 -25 -41 -25q-47 0 -47 74q0 201 201 553q180 313 358 492h-8 q-115 -12 -326 -23q-297 -8 -297 74z" />
<glyph unicode="8" horiz-adv-x="811" d="M-82 643q0 94 168 207q135 92 332 164q176 68 241 67q90 0 145.5 -57t55.5 -145q0 -33 -22 -107q-31 -100 -66 -100q-53 0 -53 41q0 25 37 82t37 102q0 100 -123 100q-145 0 -402 -131q-268 -139 -268 -248q0 -41 279 -120l139 -45q2 -2 5 -2t5 -2q18 0 109 83 q80 74 102 103q14 14 14 29l-4 22q-3 15 6 31q14 14 21 14q16 0 33 -29q12 -25 12 -45q0 -68 -180 -221l-17 -14q113 -55 152 -105q35 -47 35 -104q0 -154 -158 -250q-129 -80 -270 -80q-225 0 -226 144q0 125 297 364q-47 23 -143 49q-100 29 -145 49q-148 65 -148 154z M129 25q0 -72 166 -72q82 0 207 78q141 86 141 180q0 41 -88 100q-82 53 -111 54q-25 0 -163 -140q-152 -147 -152 -200z" />
<glyph unicode="9" horiz-adv-x="741" d="M-20 487q0 170 124 369q139 219 291 219t219 -170q49 -115 50 -303q0 -43 -2 -63q-16 -252 -138 -482q-154 -287 -364 -286q-39 0 -101 28q-76 37 -75 84q0 29 22 29q18 0 31 -12q66 -61 113 -62q211 0 342 359q96 266 96 452q0 98 -29 197q-49 158 -151 158 q-37 0 -132 -70q-100 -76 -155 -221q-49 -129 -49 -269q0 -178 116 -178q119 0 222 164q92 152 92 287q0 92 -51 117q-16 6 -17 20q0 16 19 29q20 14 30 8q57 -27 76 -92q10 -45 10 -129q0 -132 -104 -289q-123 -184 -283 -184q-4 0 -16 4h-2q-102 0 -152 116 q-32 78 -32 170z" />
<glyph unicode=":" horiz-adv-x="290" d="M111 2q0 51 53 51q76 0 76 -43q0 -70 -58 -69q-18 0 -45 18q-26 20 -26 43zM174 459q0 51 51 51q78 0 78 -45q0 -68 -57 -68q-25 0 -47 17q-25 18 -25 45z" />
<glyph unicode=";" horiz-adv-x="434" d="M61 -164q0 20 29 31q34 12 68 67q35 55 43 119q6 31 61 31q43 0 43 -37q-2 -51 -65 -129q-61 -76 -134 -102q-45 -17 -45 20zM260 479q0 51 51 51q78 0 78 -43q0 -68 -57 -67q-23 0 -45 16q-27 20 -27 43z" />
<glyph unicode="&#x3c;" />
<glyph unicode="=" />
<glyph unicode="&#x3e;" />
<glyph unicode="?" horiz-adv-x="833" d="M-59 766q0 51 163 143q150 84 211 101q106 31 211 30q272 0 273 -202q0 -119 -195 -273q-10 -8 -158 -114q-209 -147 -208 -215q0 -35 30 -37q53 -6 54 -33q0 -37 -48 -37q-49 0 -79 35q-31 34 -31 80q0 80 145 202l269 207q143 117 143 187q0 131 -197 131 q-102 0 -239 -66q-84 -41 -203 -121q-94 -66 -98 -65q-43 0 -43 47zM186 -86q0 53 64 53q66 0 65 -49q0 -20 -26 -35q-23 -14 -41 -14q-62 0 -62 45z" />
<glyph unicode="@" horiz-adv-x="997" d="M33 408q0 174 151 315q150 139 316 139q115 0 213 -74q106 -82 131 -215q6 -31 6 -63q0 -131 -72 -221q-76 -94 -182 -58q-61 23 -61 146q-170 -213 -271 -213q-55 0 -55 65q0 126 166 320q166 195 243 143q27 -16 27 -65q0 -61 -43 -66q-20 -4 -29 8q-10 12 -4 25 q10 31 11 47q0 6 4 6q-53 -8 -187 -180q-133 -170 -133 -231q0 -20 19 -21q43 0 153 135l74 86q43 59 49 101q4 33 35 32q45 0 37 -43q-31 -158 -31 -188q0 -53 23 -59q6 -2 18 -3q63 0 107 93q43 94 22 198q-20 113 -102 178q-76 59 -168 60q-144 0 -271 -123t-127 -274 q0 -160 136 -271q127 -98 292 -98q139 0 230 72q92 74 92 182q0 39 -12 78q-2 4 -2 12q0 20 16 25q18 2 27 -19q31 -66 30 -125q0 -127 -123 -207q-113 -76 -258 -75q-186 0 -333 110q-164 123 -164 316z" />
<glyph unicode="A" horiz-adv-x="1093" d="M-74 -164q0 27 154 328q43 82 55 115q-59 -25 -92 -48q-16 -10 -39 -10q-47 0 -47 49q0 37 94 70l127 41l55 119q12 29 175 368q119 229 227 230q52 0 92 -68q27 -47 35 -90q31 -143 51 -446q190 -14 191 -134q0 -41 -35 -59q-14 -7 -23 -7q-20 0 -20 34q0 2 10 32 q0 51 -127 52q10 0 14 -23q66 -442 140 -442q8 0 28 12q18 14 29 18q4 2 14 3q16 2 25.5 -8.5t9.5 -30.5q0 -27 -43 -45q-37 -16 -63 -17q-174 0 -230 531q-12 2 -45 2q-100 0 -272 -41q-166 -37 -172 -49q-33 -82 -105 -246q-14 -39 -35.5 -90.5l-44.5 -110.5 q-37 -94 -82 -94q-51 0 -51 55zM295 420q227 66 432 82q-6 92 -31 303q-31 213 -82 213q-49 0 -178 -275z" />
<glyph unicode="B" horiz-adv-x="1140" d="M-123 694q0 35 121 131q322 256 608 256q272 0 273 -188q0 -129 -232 -322q86 14 150 15q96 0 174 -39q106 -53 106 -148q0 -162 -258 -348q-227 -164 -403 -188q-219 -29 -248 -29q-197 0 -197 133q0 82 68 125q29 0 33 -4t12 -33q-43 -49 -43 -88q0 -45 129 -45 q193 0 422 96q117 49 250 164q160 135 159 215q0 100 -198 101q-141 0 -295 -54q-2 0 -7 -3t-34 -16l-78 -34q-86 -39 -110 -39q-55 0 -56 21q0 29 88 80q471 268 471 460q0 45 -53 74q-45 25 -113 25q-276 0 -606 -307q-66 -63 -84 -64q-49 0 -49 53zM53 266q0 92 45 318 q53 256 105 256q49 0 49 -52q0 -25 -19 -55q-96 -184 -96 -518q0 -141 101 -172q16 -16 16 -29q0 -29 -47 -28q-72 0 -117 112q-37 90 -37 168z" />
<glyph unicode="C" horiz-adv-x="827" d="M-59 184v70q0 147 92 350q96 209 237 352q160 162 320 162q33 0 86 -24q61 -31 61 -66q0 -23 -18.5 -41t-42.5 -18q-2 0 -53.5 22.5t-81.5 22.5q-162 0 -342 -299q-170 -281 -170 -471q0 -137 41 -221q52 -111 159 -111q92 0 211 70q178 102 303 342q20 39 43 38.5 t33 -40.5q-6 -35 -63 -134q-47 -82 -80 -120q-74 -98 -189 -164q-121 -70 -241 -70q-135 0 -223 113q-82 100 -82 237z" />
<glyph unicode="D" horiz-adv-x="1153" d="M-111 776q0 33 88 84q281 164 603 164q207 0 366 -123q174 -131 174 -338q0 -250 -192 -473q-199 -236 -449 -235q-96 0 -139 32q-8 6 -8 17q0 12 12 24.5t27 8.5q68 -14 67 -15q213 0 408 215q193 211 192 424q0 174 -143 283q-132 98 -320 98q-125 0 -270 -41 q-154 -45 -246 -108q-100 -70 -112 -70q-58 0 -58 53zM94 328v129q0 59 27 202q31 162 63 162q53 0 54 -57q0 -29 -13 -72l-8 -33.5t-6 -25.5t-2 -10q-29 -160 -29 -279q0 -414 146 -414q10 0 39 9q-45 -80 -80 -80q-100 0 -152 196q-39 146 -39 273z" />
<glyph unicode="E" horiz-adv-x="944" d="M-90 811q0 46 209 135q156 66 272 103q63 18 211 36q5 1 11 1q4 0 12 -0.5t12 -0.5q70 0 111 -24q51 -33 51 -84q0 -35 -25 -76q-12 -23 -35 -22q-14 0 -20 8q-4 6 -4 24q2 8 2 23q0 35 -25 47q-16 8 -78 8q-160 0 -446 -100q-12 -6 -104.5 -67.5t-102.5 -61.5 q-51 0 -51 51zM6 391q0 31 113 84q2 14 5 54t7 87.5l8 96.5q25 207 78 207t53 -64q0 3 -24 -104q-12 -57 -43 -254q45 12 121 39q77 25 122 24q147 0 168 -69l-10 -43q-5 0 -9 -1q-32 0 -50 23q-12 18 -70 18q-47 0 -151 -26q-121 -31 -127 -53q-9 -33 -9 -101v-45l9 -155 q4 -78 14 -105q20 -51 82 -51q66 0 207 37q143 39 227 39q68 0 119 -39q61 -47 61 -121l-43 -25q-45 102 -168 103q-63 0 -206.5 -35t-208.5 -35q-109 0 -150 78q-27 47 -27 158q0 72 5 127q6 86 6 125q-51 -29 -66 -29q-43 0 -43 55z" />
<glyph unicode="F" horiz-adv-x="630" d="M-72 829q0 49 103 91q471 186 653 186q74 0 129 -25q76 -33 76 -102q0 -58 -43 -68q-27 14 -27 52q0 57 -155 57q-74 0 -222 -37q-117 -29 -221 -72l-19.5 -10t-46 -25.5t-61.5 -33.5l-74 -41q-33 -20 -45 -23q-47 0 -47 51zM-57 344q0 41 49 66l84 28q9 61 18 154l8 93 t6.5 65.5t2.5 21.5q25 137 77 137q45 0 45 -49q0 -9 -12 -61l-41 -164q-20 -102 -20 -166q23 0 73 14q72 16 111 17q49 0 92 -15q66 -23 66 -63l-25 -27q-29 2 -71 23q-29 12 -48 12q-51 0 -110 -10q-92 -14 -92 -33q0 -515 113 -515q4 0 7 1q2 0 7 1l4 1q41 0 41 -35 q0 -14 -21 -26q-16 -10 -33 -11q-203 0 -204 537l-15 -8q-59 -31 -63 -31q-49 0 -49 43z" />
<glyph unicode="G" horiz-adv-x="1062" d="M-57 283q0 283 178 571q201 330 475 330q43 0 88 -23q57 -27 57 -65q0 -23 -14 -37q-16 -16 -31 -17q-8 0 -16 5q-61 37 -123 36q-100 0 -219 -114q-135 -131 -221 -324q-88 -195 -88 -379q0 -121 53 -223q63 -119 162 -119q215 0 426 266q193 246 211 453q1 12 1 22 q0 48 -24 48q-33 0 -366 -201q-70 -41 -82 -41q-47 0 -48 47q0 53 230 164q219 104 278 104q98 0 99 -116q0 -31 -11 -92q-2 -14 -6 -32t-8 -38q-49 -356 -49 -537q0 -158 51 -158q2 0 4 1q7 1 13 1q38 0 38 -34q0 -41 -55 -41q-145 0 -145 268q0 86 30 262 q-121 -211 -227 -297q-145 -123 -358 -123q-145 0 -234 156q-69 130 -69 277z" />
<glyph unicode="H" horiz-adv-x="1236" d="M-102 -119q0 6 8 33h41q23 -33 39 -33q88 0 137 225q29 139 35 273q-86 -43 -117 -43q-41 0 -41 45q0 35 57 59q4 2 14.5 5.5t31 8.5t40.5 11q4 -2 15 -2q2 51 2 104q0 10 -1 37t-2 75t-3 93q-4 104 -43 260q-8 37 -9 49q0 61 56 62q40 0 67 -197q20 -141 21 -248v2v-1 v-1v-1v-2v-2v-2v-3v-1v-3v-2v-1v-2v-4v-20v-77v-72l2 -10q229 72 342 82l211 18q25 0 43 -2q23 -2 45 -2q16 150 57 307q57 213 115 213q43 0 43 -57q0 -25 -10 -62q-23 -57 -47 -125l-39 -143q-22 -83 -25 -147q66 -31 82 -46q39 -33 39 -83q0 -27 -18.5 -51.5t-41.5 -24.5 q-20 0 -30 39l18 41q-6 29 -55 41q-5 -14 -5 -54.5t5 -107.5l8 -144q27 -211 96 -211q16 0 33 21h47q6 -20 6 -35q0 -25 -32 -43q-29 -16 -54 -16q-139 0 -182 250q-12 78 -20 350q-35 6 -131 6q-154 0 -502 -98q-8 -113 -53 -332q-55 -268 -201 -268q-27 0 -53 16 q-41 22 -41 53z" />
<glyph unicode="I" horiz-adv-x="716" d="M-70 991q0 57 236 125q209 59 297 60q59 0 143 -27q102 -35 103 -84q0 -53 -25 -53q-27 0 -43 41q-18 49 -152 49q-141 0 -276 -49q-143 -53 -229 -103q-8 -4 -15 -4q-39 0 -39 45zM-27 -98q0 59 316 123q-78 102 -78 407q0 213 31 428q2 37 20 182q2 12 21 37 q22 25 43 25q46 0 46 -50q0 -9 -1 -20q-74 -465 -74 -645q0 -92 8 -160q18 -186 82 -186q20 0 36.5 2t37.5 2q86 0 153 -22q102 -35 103 -97q0 -25 -17 -34q-6 -4 -43 -5q-16 84 -165 84q-174 0 -410 -102q-47 -20 -59 -21q-50 1 -50 52z" />
<glyph unicode="J" horiz-adv-x="686" d="M-432 -246q0 51 35 51q18 0 24 -34q12 -80 78 -140q63 -57 145 -57q268 0 404 320q100 238 100 571q0 289 -45 586q-4 27 10 51q16 29 52 28q41 0 53 -38q4 -16 6 -70q6 -127 6 -330q0 -590 -119 -860q-51 -117 -147 -217q-111 -117 -229 -127q-14 -2 -26.5 -2t-21 -1 t-14.5 -1h-8h-2q-96 0 -197 78q-104 83 -104 192zM6 1044q0 61 246 121q207 49 309 49q59 0 107 -26q61 -37 61 -98q0 -14 -14 -35q-27 -33 -51 -2q0 4 1 8t1 8q0 49 -48 66q-23 8 -86 8q-137 0 -417 -119q-47 -20 -56 -20q-53 -1 -53 40z" />
<glyph unicode="K" horiz-adv-x="747" d="M-72 295q0 233 33 489q39 297 102 297q55 0 52 -59q-100 -260 -101 -625q0 -29 4 -168q0 -53 33 -172q41 -133 80 -133q41 0 66 -16q-6 -51 -56 -51q-102 0 -159 127q-40 92 -50 215q-4 49 -4 96zM25 512q27 20 45 25h43q94 8 231 118q125 98 195 191q12 18 24 41 q98 174 128 174h1q18 0 31 -21q14 -25 14 -34q-2 -45 -129 -215q-55 -74 -172 -166q-127 -100 -233 -138q12 -8 116 -149q86 -115 185 -207q141 -135 219 -137q23 0 43 10q16 10 70 35l18 -33q-4 -43 -70 -67q-50 -17 -88 -17h-12q-137 6 -350 266l-154 181q-80 82 -149 100 z" />
<glyph unicode="L" horiz-adv-x="884" d="M-78 -113q0 27 105 80q20 10 22 13q115 88 115 428q0 221 -6 282l-23 264q0 61 33 107q39 51 102 51q57 0 144 -65q96 -72 96 -127q0 -49 -49 -50q-31 0 -88 88q-55 86 -111 86q-34 0 -33 -84v-26l19 -389v-297q0 -131 -64 -244q270 98 478 98q90 0 178 -47 q113 -57 112 -141q0 -41 -69 -41l2 37q4 51 -55.5 75.5t-184.5 24.5q-199 0 -432 -80q-2 0 -15.5 -6t-45 -18t-66.5 -27q-104 -41 -113 -41q-51 0 -51 49z" />
<glyph unicode="M" horiz-adv-x="1658" d="M-123 748q0 46 135 153q132 104 178 105q90 0 115 -158q6 -33 6 -223q0 -76 -8 -230q203 602 371 602q115 0 145 -249q14 -109 15 -345l43 183q47 174 131 329q123 227 239 228q139 0 158 -301l22 -393q4 -86 8.5 -161t6.5 -105.5t2 -32.5q29 -238 96 -238q16 0 39 25 q20 23 37 22q9 0 18 -6q15 -11 15 -28q0 -8 -2 -17q-10 -31 -54 -51q-41 -18 -63 -19q-82 0 -123 78q-70 133 -82 823q-6 328 -88 328q-76 0 -193 -283q-61 -145 -124 -368q-72 -257 -73 -382q0 -5 0.5 -14.5t0.5 -14.5q0 -24 -12 -58q-16 -43 -50 -43q-20 0 -34 22 q-12 18 -13 37q0 74 9 182q10 137 10 183q0 178 -15 336q-25 256 -81 256q-53 0 -150 -218q-176 -408 -209 -618q-2 -33 -20 -176q-9 -49 -62 -49t-53 59l16 137q37 322 37 699q0 176 -47 176q-33 0 -94 -72l-82 -106q-49 -59 -72 -60q-49 1 -49 56z" />
<glyph unicode="N" horiz-adv-x="1091" d="M-102 729q0 51 133 154q126 98 178 98q113 0 113 -160l-7 -387l107 314q129 338 256 337q86 0 121 -137q9 -34 24 -203q4 -94 35 -409q41 -322 103 -322q6 0 40 25q10 8 31 14l33 -16q-4 -43 -43 -74q-33 -27 -64 -26q-104 0 -153 186q-29 104 -47 373q-8 106 -35 366 q-25 154 -70 154q-33 0 -137 -266q-102 -264 -145 -400q-68 -221 -68 -416q0 -74 -55 -73q-53 0 -53 67q0 61 12 184.5t12 184.5q0 25 8 205q6 135 6 205q0 195 -40 194q-49 0 -197 -178q-27 -33 -43 -45q-4 -2 -12 -2q-14 0 -29 20q-14 19 -14 33z" />
<glyph unicode="O" horiz-adv-x="913" d="M-55 311q0 113 41 246l57 162v17q0 181 129 313q121 124 278 123q14 0 29 -1q157 -9 258 -184q88 -145 88 -307q0 -281 -131 -518q-160 -291 -424 -291q-176 0 -260 147q-65 115 -65 293zM35 307q0 -139 49 -237q61 -123 174 -123q227 0 360 256q113 211 113 471 q0 141 -69 266q-80 143 -209 156q-10 1 -20 0q-106 0 -202 -92q-104 -102 -110 -218q-2 29 33 72q35 41 61 41q16 0 32.5 -16.5t16.5 -32.5q0 -27 -65.5 -104.5t-65.5 -86.5q0 -6 21 -24q18 -16 28 -17q8 0 16.5 1.5t12.5 2.5t6 1t6 1t6 1q20 0 21 -21q0 -49 -62 -49 q-55 0 -90 33q-63 -148 -63 -281z" />
<glyph unicode="P" horiz-adv-x="1112" d="M-100 874q0 14 55 66q49 45 70 59q203 135 317 181q158 61 369 61q180 0 282 -96q100 -94 101 -244q0 -154 -154 -313q-143 -147 -289 -193q-152 -47 -215 -47q-51 0 -96 27q-57 33 -57 88q0 29 22 51h43q-4 -80 66 -80q193 0 391 158q205 162 205 346q0 117 -107 178 q-88 51 -227 51q-180 0 -361 -100q-102 -55 -307 -221q-35 -29 -47 -29q-18 0 -41 19q-20 18 -20 38zM104 420q0 270 23 450q8 78 59 78q53 0 54 -53q0 -33 -13 -82l-16 -82q-25 -178 -25 -334q0 -494 158 -493h14l31 -29q-12 -45 -51 -45q-131 0 -186 162q-39 113 -39 258 q0 12 -4.5 86t-4.5 84z" />
<glyph unicode="Q" horiz-adv-x="913" d="M-55 315q0 113 41 246l57 162v17q0 181 129 313q121 124 278 124q14 0 29 -1q157 -9 258 -185q88 -145 88 -307q0 -195 -69 -385q-82 -221 -226 -334q82 -51 156 -51q34 0 37 6v2q0 25 4 37q6 16 23 29q49 -18 49 -64q0 -43 -47 -71q-43 -27 -76 -27q-66 0 -193 84 l-18 12q-86 -47 -195 -47q-178 0 -260 145q-65 115 -65 295zM35 313q0 -138 49 -239q61 -123 174 -123q70 0 127 24q-94 57 -178 58q-74 0 -74 47t78 47q92 0 248 -113q135 94 207 299q66 180 65 365q0 141 -69 266q-80 143 -209 156q-10 1 -20 1q-106 0 -202 -93 q-104 -102 -110 -217q-2 29 33 71q35 41 61 41q16 0 32.5 -16.5t16.5 -32.5q0 -27 -65.5 -104.5t-65.5 -85.5q0 -6 21 -25q18 -16 28 -16q8 0 16.5 1t12.5 2t6 1t6 1t6 1q20 0 21 -21q0 -49 -62 -49q-51 0 -90 35q-63 -148 -63 -281z" />
<glyph unicode="R" horiz-adv-x="1083" d="M-115 868q0 10 9 19q133 131 374 237q255 111 449 111q174 0 270 -84q98 -86 98 -223q0 -23 -2 -35q-12 -145 -178 -305q-152 -145 -299 -191q-98 -31 -114 -35l69 -96q94 -127 234 -250q82 -74 163 -73q20 0 46 12l69 39l19 -33q-6 -43 -72 -70q-55 -23 -98 -22 q-170 0 -349 250q-52 71 -122 147q-76 82 -103 88q-76 20 -76 60q0 37 62 37q35 0 72 -15q193 18 385 170q201 160 213 334q1 11 0 21q0 100 -82 153q-78 49 -213 49q-287 0 -678 -286q-76 -57 -84 -58q-20 0 -41 14.5t-21 34.5zM160 252q2 303 65 616q16 78 62 78 q49 0 49 -55q0 -25 -17 -86q-14 -43 -22 -78q-35 -160 -47 -338q-6 -86 -6 -158q0 -332 123 -331q2 0 8 1t8 1l29 -29q-14 -45 -54 -45q-199 0 -198 400v24z" />
<glyph unicode="S" horiz-adv-x="825" d="M-66 545q0 201 271 416q254 199 438 198q152 0 152 -188q0 -35 -17 -68q-16 -43 -47 -43q-18 0 -35 17q-18 18 -14 36q2 14 3 26.5t3 21t3 13.5t1 7v2q0 92 -63 92q-121 0 -359 -198q-244 -203 -243 -314q0 -45 96 -76q45 -14 244 -49q164 -29 251 -69q125 -57 125 -168 q0 -127 -147 -242q-137 -106 -266 -106h-43q-86 0 -158 51q-86 59 -86 141q0 18 14 61q14 45 35 46q35 0 35 -35q0 -14 -6 -35q-6 -22 -6 -25q0 -53 51 -84q47 -29 110 -28q129 0 248 78q131 88 131 200q0 63 -106 99q-39 14 -236 47q-96 14 -252 51q-127 43 -127 125z" />
<glyph unicode="T" horiz-adv-x="847" d="M-115 909q0 47 230 133q145 53 286 91q154 37 295 36q96 0 183 -26q125 -37 125 -113q0 -58 -43 -86q-18 -12 -29 -12q-23 0 -17 37q14 35 15 43q0 78 -279 78q-190 0 -442 -107l-168 -84q-80 -37 -102 -37q-54 0 -54 47zM340 340v164l25 403q10 137 73 137q53 0 54 -57 q0 -23 -19 -88l-22 -88q-25 -141 -25 -315q0 -87 6 -181q6 -82 31 -247q23 -88 39 -115q29 -47 88 -53q25 -2 24 -21q0 -14 -12 -22q-18 -18 -43 -19q-121 0 -178 205q-41 141 -41 297z" />
<glyph unicode="U" horiz-adv-x="995" d="M-51 864q4 45 92 119q66 55 137 94q41 23 88 23q41 0 66 -51q20 -45 20 -80q0 -121 -121 -490q-106 -322 -106 -483q0 -82 18 -82q154 0 437 600q45 98 90 258q14 45 28 111q6 115 11 129q18 88 67 88q51 0 51 -58q0 -33 -10 -71q-4 -18 -9 -35.5l-7 -25t-2 -9.5 q-2 -6 -21 -147q-10 -88 -10 -291l18 -279q16 -211 88 -211q31 0 48 50q6 25 24 24q31 0 31 -47q0 -41 -28.5 -67.5t-69.5 -26.5q-121 0 -170 229q-29 139 -29 318q0 23 4 96q-78 -225 -225 -445q-178 -264 -312 -264q-61 0 -92 49q-27 39 -26 95q0 119 69 370l107 367 q57 211 57 266q0 37 -26 37q-35 0 -115 -82q-51 -66 -66 -82q-37 -39 -55 -39q-28 0 -51 43z" />
<glyph unicode="V" horiz-adv-x="1013" d="M-104 772q0 37 100 131q90 84 131 101q46 18 80 18q86 0 147 -184q37 -115 80 -371q23 -150 47 -291q45 -225 76 -225q37 0 70 149q61 272 157 566q141 436 228 436q20 0 41 -21q12 -12 12 -23q0 -7 -4 -14q-70 -98 -125 -245q-117 -303 -172 -527q-41 -176 -94 -354 q-18 -63 -102.5 -63t-151.5 243q-23 90 -66 318q-98 532 -176 532q-47 0 -125 -110q-78 -113 -106 -113q-47 0 -47 47z" />
<glyph unicode="W" horiz-adv-x="1519" d="M-143 633q2 70 131 201q127 129 194 129q127 0 170 -215q18 -104 19 -314q0 -139 -6 -256q92 262 194 465q139 274 211 275q63 0 64 -64q0 -16 -17 -45q-4 -41 -4 -76q0 -242 68 -502q82 -315 200 -315q131 0 217 303q68 233 68 416q0 193 -39 328q-59 213 -192 213 q-41 0 -88 -50h-33q-6 6 -17 27q4 41 70 72q55 25 96 24q131 0 221 -174q66 -127 76 -280q0 -6 1 -22.5t1 -24.5q0 -291 -88 -564q-111 -344 -289 -344q-188 0 -286 387q-68 262 -68 543q0 8 2 14q-43 -39 -192 -366q-88 -193 -148 -422q-8 -39 -12 -72q-10 -100 -49 -108 q-6 -2 -21 -2q-49 0 -49 54q0 78 5 147t10 99l6 29q0 324 -7 420q-25 322 -102 322q-45 0 -111 -90l-92 -136q-41 -53 -73 -55z" />
<glyph unicode="X" horiz-adv-x="991" d="M-74 -49q0 76 94 235q61 104 175 256l94 129q0 12 -121 213l-156 252q-55 92 -55 111q0 57 55 57q33 0 60 -43l75 -153l95 -183q55 -102 106 -174l256 303q236 272 281 273q18 0 35 -15q18 -16 18 -34q0 -16 -14 -35l-289 -297q-238 -248 -238 -273q0 -23 148 -219 q182 -244 295 -243q29 0 49 26.5t39 26.5q35 0 35 -35q0 -47 -60 -78q-43 -23 -94 -22q-131 0 -272 178l-203 287q-150 -209 -195 -285q-119 -201 -119 -311q0 -20 37 -66l-22 -35q-47 6 -82 68q-27 47 -27 86z" />
<glyph unicode="Y" horiz-adv-x="886" d="M-82 918q0 45 154 157q152 113 217 113q111 0 110 -125q0 -111 -77 -379l-117 -395q-37 -152 -37 -207q0 -90 41 -90q68 0 244 299q305 524 317 796q0 6 -1 23.5t-1 28.5v51q0 57 47 57q57 0 96 -293q31 -215 31 -299q0 -391 -37 -624q-51 -342 -207 -588 q-162 -258 -428 -258q-100 0 -194 84q-90 80 -127 194q-4 33 -4 35q6 31 32 19q12 -4 41 -49q121 -195 246 -195q276 0 438 383q113 264 134 563q18 231 18 346q0 174 -35 367q-4 -12 -12 -39l-23.5 -79l-29.5 -95q-84 -279 -252 -533q-172 -266 -303 -266q-123 0 -123 160 q0 98 78 369l114 387q35 139 35 194q0 76 -31 76q-35 0 -161.5 -119t-149.5 -119q-43 1 -43 50z" />
<glyph unicode="Z" horiz-adv-x="948" d="M-84 -37q0 76 127 215q94 102 180 180q95 89 412 357q352 297 379 297q20 0 37 -15q18 -14 18 -34q0 -23 -176 -162q-893 -713 -893 -819q0 -12 23 -13q10 0 73 21l379 119q221 63 340 63q98 0 186 -59q94 -68 95 -170q0 -35 -29 -93q-14 -16 -31 -16q-27 0 -26 33 q0 12 6 24q8 16 8 48q0 61 -82 106q-70 37 -151 37q-141 0 -291 -45q-6 -2 -275 -98q-195 -72 -225 -72q-84 0 -84 96zM63 932q0 31 52 49q70 27 213 53q61 10 115.5 20.5l76.5 14.5l23 4q231 51 368 51q80 0 142 -30q78 -39 77 -113q0 -47 -26 -88q-12 -20 -33 -21 q-27 0 -20 33q14 85 14 85.5t0 -1.5q0 57 -160 58q-106 0 -293 -43q-184 -45 -395 -105q-70 -20 -100 -20q-54 0 -54 53z" />
<glyph unicode="[" horiz-adv-x="716" d="M137 1221q10 43 82 61q150 37 254 33q80 0 152 -25q94 -31 94 -84t-23 -53q-29 0 -45 41q-18 49 -151 49q-135 0 -275 -49q-39 -16 -61 -10q-33 6 -27 37zM217 449q0 299 37 550q4 66 18 185q4 16 21 37q22 25 43 24q57 0 45 -69l-43 -275q-41 -274 -41 -555 q0 -344 90 -344q20 0 36.5 2t37.5 2q88 0 153 -22q102 -35 103 -97q0 -25 -15 -34q-6 -4 -45 -5q-16 84 -165 84q-57 0 -138 -18q-6 -2 -20 -2q-53 0 -53 41q0 14 12 27q-76 100 -76 469z" />
<glyph unicode="\" />
<glyph unicode="]" horiz-adv-x="716" d="M-72 1268q0 8 2 12q16 51 277 51q276 0 305 -78q12 -37 -29 -36q-8 0 -24 4q-113 33 -242 28q-162 -6 -250 -24q-20 -4 -29.5 6t-9.5 37zM-31 -133q0 55 318 123q-70 98 -70 418q0 260 45 616q4 63 19 182q2 14 20 37q22 25 43 25q53 0 45 -68l-43 -274 q-51 -334 -51 -611q0 -307 88 -307q35 0 35 -33q0 -40 -68 -55q-156 -33 -272 -84q-47 -20 -60 -20q-49 0 -49 51z" />
<glyph unicode="^" />
<glyph unicode="_" />
<glyph unicode="`" horiz-adv-x="610" d="M82 932q0 29 39 41q41 12 53 -4q61 -76 238 -162q35 -16 18 -41q-12 -20 -43 -8q-145 55 -162 63q-115 51 -137 90q-6 11 -6 21z" />
<glyph unicode="a" horiz-adv-x="714" d="M-41 -25q0 125 131 330q123 193 279 326q118 100 191 100q28 0 50 -14q37 -25 37 -99q0 -88 -61 -94q-43 -4 -43 29q0 8 2 10q18 47 18 82q0 20 -6 21q-96 -18 -311 -299q-217 -283 -217 -387q0 -37 32 -37q82 0 267 221l139 168q53 76 63 141q6 43 45 43q51 0 52 -40 q0 -8 -2 -17q-49 -252 -50 -305q0 -98 46 -111q14 -2 32 6q14 8 17 17q9 43 49 43q23 0 22 -27q0 -14 -4 -25q-31 -78 -110 -77q-18 0 -43 10q-92 35 -92 215v41q-90 -123 -213 -236q-152 -135 -236 -135q-27 0 -47 14q-37 31 -37 86z" />
<glyph unicode="b" horiz-adv-x="831" d="M-43 223q0 164 90 518q92 360 146 361q12 0 36 -15q25 -15 25 -36q0 -8 -2 -13q-115 -295 -117 -305q-100 -307 -100 -540q0 -55 10 -89q94 164 248 297q176 156 332 156q51 0 98 -29q61 -37 61 -102q0 -152 -221 -371q-223 -219 -366 -219q-119 0 -119 88q0 47 47 99 q12 12 31 12q23 0 22 -17q0 -10 -14 -30q-25 -33 -25 -54q0 -25 37 -24q123 0 328 207q205 205 205 315q0 59 -80 60q-194 0 -479 -375l-3 -4l-8 -13q-61 -104 -92 -104q-66 0 -84 88q-6 37 -6 139z" />
<glyph unicode="c" horiz-adv-x="657" d="M-29 129q0 144 129 350q147 238 314 238q29 0 84 -25q74 -32 74 -81q0 -15 -15 -25q-18 -12 -31 -13q-20 0 -55 35t-65 35q-120 0 -246 -221q-111 -197 -111 -305q0 -123 105 -123q101 0 202 67q88 57 158 164q6 10 16 11q14 0 23 -15q10 -18 8 -26q-10 -33 -110 -132 q-90 -92 -113 -100q-96 -53 -121 -53q-10 0 -24.5 -2t-24.5 -2q-101 0 -154 74q-43 61 -43 149z" />
<glyph unicode="d" horiz-adv-x="839" d="M-41 -39q0 83 86 252q94 186 209 309q137 150 258 150q43 0 90 -35l57 311q37 197 82 197q14 0 35 -17q18 -15 19 -36q0 -6 -25 -86q-123 -424 -123 -811q0 -225 68 -226q2 2 6 4l8 4q12 8 41 23q16 -16 16 -35q0 -25 -28.5 -41t-50.5 -16q-141 0 -142 325q0 45 2 72 l-35 -45q-313 -397 -456 -397h-19q-98 0 -98 98zM27 -35q0 -27 22 -26q84 0 287 202q184 188 217 265q23 51 22 106q0 31 -16 59q-14 27 -37 33q-7 1 -14 1q-108 0 -293 -263q-188 -268 -188 -377z" />
<glyph unicode="e" horiz-adv-x="610" d="M-37 133q10 150 156 363q160 233 291 233q41 0 65 -41q18 -31 19 -63q0 -92 -82 -219q-94 -150 -219 -150q-59 0 -91 25l-2 4q-16 -14 -39 -97q-20 -76 -20 -137q0 -76 102 -76q98 0 226 113q125 111 174 225h30q16 -16 16 -26q0 -3 -1 -6q-55 -162 -191 -273 q-126 -104 -252 -104q-92 0 -141 63q-42 56 -42 143q0 11 1 23zM127 338q0 -10 45 -12h4q76 0 162 108q88 109 88 197q0 30 -19 30q-4 0 -10 -2q-39 -10 -67 -45q-203 -236 -203 -276z" />
<glyph unicode="f" horiz-adv-x="483" d="M-49 307q0 16 8 23q23 23 150 80l18 10q31 342 53 426q70 291 250 291q61 0 111 -70q43 -61 43 -123q0 -76 -33 -88q-20 6 -27 37q0 12 -2 24.5l-4 24.5q-6 43 -35 82q-31 49 -67 49q-102 0 -158 -246q-27 -123 -43 -378q4 0 20.5 3t32.5 7q31 8 56 8q84 0 112 -66 q4 -8 4 -24q0 -20 -12 -27q-14 -6 -37 21q-27 33 -69 32q-20 0 -68 -14q-39 -12 -49 -29q-6 -8 -6 -53q0 -70 14 -211q12 -121 12 -174q0 -66 -51 -65q-48 0 -48 56q0 6 1 13q0 14 2 15q0 86 -8 391q-45 -23 -103 -58q-23 -14 -32 -14q-35 0 -35 47z" />
<glyph unicode="g" horiz-adv-x="749" d="M-61 -334q0 55 38 55q27 0 27 -32q-4 -111 74 -201q76 -88 168 -88q195 0 286 285q59 184 60 364q0 362 -64 363q-4 0 -45 -64q-113 -168 -170 -237q-127 -145 -229 -146q-57 0 -86 41q-27 35 -27 88q0 166 207 424q209 260 340 260q57 0 88 -59q25 -46 25 -92 q0 -82 -45 -82q-48 0 -49 73q0 12 2 25v14q0 47 -23 48q-72 0 -194 -142q-90 -102 -144 -192q-39 -45 -82 -131q-51 -102 -51 -160q0 -41 16 -41q71 0 185 123q37 39 186 227q96 123 125 123q63 0 98 -195q23 -139 23 -256q0 -310 -123 -528q-123 -217 -291 -217 q-125 0 -225 112.5t-100 237.5z" />
<glyph unicode="h" horiz-adv-x="675" d="M-12 119q0 207 63 586q68 422 125 421q49 0 49 -47l-35 -108q-35 -109 -51 -199q-61 -356 -67 -584l8 21q158 385 287 385q109 0 137 -320q8 -111 22 -208q15 -80 43 -80q27 0 43 16q18 18 27 18q29 0 29 -28q0 -27 -41 -49q-33 -18 -58 -19q-121 0 -151 318 q-4 39 -23 204q-12 80 -35 80q-57 0 -145 -178q-121 -242 -139 -452q0 -14 -19 -29q-16 -14 -32.5 -14t-22.5 16q-14 35 -14 250z" />
<glyph unicode="i" horiz-adv-x="307" d="M2 223q0 82 23 213q31 182 88 182q43 0 43 -49q0 -27 -27 -88q-29 -74 -41 -239q2 -40 2 -64.5t-2 -32.5l25 -120q25 -80 75 -80q12 0 17 4q12 18 37 31q20 -18 20 -33q0 -29 -35 -47q-29 -16 -49 -17q-92 0 -141 146q-35 100 -35 194zM68 901q0 18 16 39t39 21 q49 0 49 -58q0 -55 -51 -55q-22 0 -37 18q-16 21 -16 35z" />
<glyph unicode="j" horiz-adv-x="358" d="M-492 -367q0 47 33 48q34 0 31 -37q0 -8 -1 -15q0 -91 69 -168q74 -84 172 -84q211 0 309 324q61 205 61 420q0 274 -47 448q-6 18 4 47q12 37 49 37q76 0 76 -450q0 -137 -8 -223q-25 -248 -133 -451q-123 -227 -277 -227q-143 0 -239 94q-99 96 -99 237zM154 815 q0 39 41 39q57 0 57 -35q0 -51 -45 -51q-53 0 -53 47z" />
<glyph unicode="k" horiz-adv-x="690" d="M-33 328q0 78 49 413q61 403 117 404q10 0 31 -17q20 -18 20 -38v-9q-131 -375 -131 -743q0 -195 43 -338q20 -68 49 -76q43 -12 43 -35q0 -12 -12 -22q-14 -10 -24 -8q-115 27 -158 196q-23 89 -27 273zM72 250q0 6 61 67q78 78 133 150q71 95 129 246q20 49 47 49 q51 0 52 -57q0 -115 -297 -424q213 -41 305 -86q174 -82 174 -236q0 -18 -12 -55q-14 -47 -35 -54l-17 5l2 -2q-16 10 -16 22q0 10 8 28.5t8 35.5q0 137 -178 204q-121 45 -252 45h-32q-12 0 -25 -1l-12 -1q-43 1 -43 64z" />
<glyph unicode="l" horiz-adv-x="325" d="M4 319q0 255 31 517q34 289 74 288q51 0 51 -57q0 -8 -6 -33l-13 -69q-18 -104 -24 -160q-29 -242 -29 -526q0 -356 125 -357q23 0 35 19h22l17 -19v2l2 -2q2 -6 2 -18q-33 -43 -84 -43q-74 0 -129 86q-61 94 -72 282q0 12 -1 43t-1 47z" />
<glyph unicode="m" horiz-adv-x="1169" d="M-72 29q0 193 9 307q10 129 28 201q25 90 55 90q23 0 39 -15q18 -14 15 -30q-55 -201 -60 -428q92 168 146 254q121 182 186 182q78 0 78 -179v-14q0 -22 -6 -92q-6 -68 -6 -106q0 -72 16 -115q35 10 121 127q74 102 121 182q129 221 188.5 221t73.5 -110q4 -70 14 -213 q18 -258 92 -262q29 0 49.5 28.5t36.5 28.5q27 0 27 -29q0 -40 -49 -67q-39 -23 -66 -23q-86 0 -137 123q-41 90 -41 172q0 -3 0 -2.5v4v11.5t0.5 19t1 27.5t0.5 34.5q1 20 1 41q0 37 -3 74q-6 57 -20 57q-3 0 -50 -73l-172 -267q-131 -182 -206.5 -182t-81.5 162 q-1 8 -1 22q0 36 9 263q4 53 -8 53q-33 0 -164 -240q-137 -248 -146 -336q-2 -35 -45 -34q-18 0 -34 61q-11 56 -11 72z" />
<glyph unicode="n" horiz-adv-x="696" d="M16 371q0 16 4.5 61t6.5 76q10 80 57 80q33 0 41 -21q2 -6 4 -13t2 -10t2 -9.5l4 -12.5l-57 -291l16 31q207 354 297 354q83 0 111 -122l16 -185q10 -96 21 -172q23 -137 65 -137q18 0 49 35l37 -12q4 -37 -33 -64q-28 -18 -49 -18q-139 0 -174 317q-8 109 -20 207 q-10 80 -27 80q-35 0 -164 -207q-135 -217 -184 -379q-12 -45 -47 -45q-39 0 -39 37q-1 19 61 420z" />
<glyph unicode="o" horiz-adv-x="612" d="M-14 109q0 147 71 325q72 176 133 176q57 0 58 -49q0 -10 -33 -55q-154 -203 -154 -381q0 -152 76 -152q113 0 225 211q96 182 97 291q0 160 -78 160q-59 0 -129 -66l-14 9q-14 10 -15 24q0 35 70 68q55 27 88 26q79 0 121.5 -64t42.5 -186q0 -115 -105 -303 q-127 -227 -272 -239q-8 -1 -15 -1q-73 0 -120 58q-47 60 -47 148z" />
<glyph unicode="p" horiz-adv-x="688" d="M-8 -172q0 229 47 727q12 141 84 141q43 0 43 -47q0 -2 -1 -6t-1 -6l-47 -242q199 289 397 289q129 0 129 -184q0 -152 -135 -340q-141 -193 -272 -193q-98 0 -99 101q0 31 21 77h41q2 -14 -2 -41q-4 -33 -4 -41q0 -23 26 -22q123 0 238 199q102 174 102 282q0 98 -53 99 q-104 0 -246 -175q-127 -154 -149 -260q-35 -170 -39 -407v-20q0 -308 94 -308q4 2 10 4l49 19v-37q0 -20 -30 -33q-20 -10 -37 -10q-82 8 -127 119q-34 86 -37 202q-2 37 -2 113z" />
<glyph unicode="q" horiz-adv-x="696" d="M-66 59q0 144 234 424q229 276 340 277q92 0 92 -125q0 -88 -53 -88q-43 0 -43 47v14q0 2 2 6t5 13.5t5 17.5l10 35q0 14 -12 14q-41 0 -213 -182q-63 -68 -164 -215q-125 -182 -125 -264q0 -10 15 -10q74 0 262 176q178 166 203 239l16 68q16 37 53 37q53 0 53 -58h-18 q10 2 15 0t3 -6l-6 -20q-37 -125 -65 -254q-70 -309 -70 -512q0 -65 19 -117q27 -84 83 -84q49 0 74 47t37 47q31 0 31 -32q0 -51 -51 -89q-47 -35 -91 -34q-100 0 -153 110q-35 80 -35 172q0 184 84 578v6q-274 -350 -420 -350h-20q-41 0 -72 43q-25 34 -25 69z" />
<glyph unicode="r" horiz-adv-x="522" d="M-12 -8q18 197 18 327q0 43 -9.5 146.5t-9.5 163.5q0 17 17 37q18 20 39 20q31 0 47 -33q10 -29 8 -43q-12 -101 -12 -172q119 307 260 307q90 0 107 -83q2 -10 1 -18q0 -32 -34 -32q-14 0 -21 11l-8 24l-2 10q-4 20 -24 21q-47 0 -121 -103q-92 -129 -123 -217 q-35 -99 -35 -222v-19q0 -6 6 -160q0 -18 -18 -35q-20 -16 -37 -16q-50 0 -50 69q0 8 1 17z" />
<glyph unicode="s" horiz-adv-x="530" d="M-43 338q0 98 152 246q150 147 256 147q27 0 71 -22q49 -28 49 -62q0 -41 -34 -41q-6 0 -37 17q-34 18 -49 18h-8q-65 0 -179 -96q-123 -104 -123 -180q0 -39 144 -39q274 0 274 -154q0 -109 -123 -195q-113 -78 -221 -77q-47 0 -90 30q-49 33 -49 88q0 18 20 54 q23 35 47 34q6 0 15 -4q-2 -33 -13 -51q-6 -10 -6 -22q0 -45 53 -45q78 0 185 53q117 58 117 123q0 39 -39 65q-34 22 -74 25l-189 6q-49 4 -90 20q-59 25 -59 62z" />
<glyph unicode="t" horiz-adv-x="522" d="M-6 406q0 31 162 108l18 6q2 12 23 197q16 133 65 133q41 0 45 -55l-41 -242q47 10 105 10q29 0 67 -20q51 -29 51 -66q0 -4 -4 -12v-2l-4 -8l-8 -4h-2q-8 -4 -14 -5q-4 0 -15 11q-18 47 -65 47q-16 0 -35 -6q-41 -10 -84 -37v-15q-10 -78 -10 -167q0 -36 2 -72 q9 -258 117 -258q31 0 55 31q27 33 35 32q33 0 32 -30q0 -35 -59 -66q-49 -25 -70 -25q-88 0 -141 97q-39 74 -47 153q-8 76 -8 156q0 68 6 137q-47 -16 -131 -76q-8 -8 -19 -8q-26 1 -26 56z" />
<glyph unicode="u" horiz-adv-x="673" d="M-31 92q0 52 56 283q63 262 108 266q16 0 41 -14q20 -12 21 -29q0 -4 -9 -25l-16 -45q-125 -340 -125 -467q0 -82 29 -81q39 0 110 90q82 102 158 252q88 170 88 260q0 29 19 57q18 27 43 27q49 0 49 -50q0 -14 -16.5 -94t-16.5 -168q0 -305 94 -305q23 0 49 27 q12 10 33 26q23 -18 23 -30q0 -35 -50 -64q-41 -23 -63 -22q-152 0 -176 333l-2 17q-102 -213 -135 -266q-106 -162 -220 -162q-92 0 -92 184z" />
<glyph unicode="v" horiz-adv-x="616" d="M-61 575q0 20 20 33q16 10 33 10q39 0 127 -210q2 -4 108 -285q10 -25 16.5 -44.5t9.5 -27.5t1 -8l35 88q102 260 135 324q115 219 219 219q43 0 43 -39q0 -16 -24 -23q-6 -2 -17 2h-2h-1q-59 0 -175 -245l-143 -340q-51 -121 -78 -121q-33 0 -70 108q-29 94 -78 232 q-20 51 -92 188l-63 121q-4 12 -4 18z" />
<glyph unicode="w" horiz-adv-x="999" d="M-16 133q10 158 22 295q20 156 74 156q43 0 43 -58q0 -8 -2 -16q-61 -283 -62 -410q-3 -41 -3 -66q0 -54 16 -54q53 0 153 202q63 129 107 256q33 111 35 117q20 70 49 70q12 0 33 -11q27 -16 22 -39q-1 -12 -1 -26q0 -84 48 -230q72 -213 176 -213q51 0 103 144 q53 147 53 280q0 20 -4 58q-14 129 -70 129q-6 0 -20.5 -6t-22.5 -6q-41 0 -41 16t33 35q37 20 63 20q76 0 117 -119q31 -86 31 -182q0 -98 -66 -250q-80 -195 -182 -194q-92 0 -184 153q-57 100 -105 244l-118 -287q-117 -248 -199 -247q-57 0 -84 106q-15 59 -15 114 q0 9 1 19z" />
<glyph unicode="x" horiz-adv-x="770" d="M-29 -41q0 88 115 264q115 177 115 166l-113 137q-113 137 -113 183q0 16 11 28q12 16 24 17q29 0 133 -146q104 -143 113 -143l137 188q135 188 174 189q18 0 31 -21q12 -25 12 -33q0 -20 -151 -190q-150 -168 -150 -192q0 -20 131 -145.5t158 -133.5q2 0 29 -10 q25 -8 30 -8q27 0 64 32q37 6 37 -26q0 -27 -56 -52q-43 -20 -61 -20q-127 0 -379 291q-59 -63 -133 -193q-82 -145 -82 -215q0 -18 16 -61l-38 -12q-18 14 -35 51q-19 39 -19 55z" />
<glyph unicode="y" horiz-adv-x="688" d="M-215 -317q0 41 33 41q18 0 28 -31q4 -10 6.5 -21.5l4.5 -21.5q31 -82 92 -133q68 -57 147 -64q14 -1 28 -1q187 0 300 231q98 200 98 442q0 166 -49 412q-80 -207 -137 -316q-111 -211 -215 -244q-18 -6 -37 -6q-92 0 -92 144q0 139 69 374q74 252 127 259q16 2 41 -15 q20 -14 21 -33q0 -6 -2 -8q-57 -86 -107 -223q-70 -184 -69 -346q0 -82 24 -82q33 0 99 102q23 35 65 111q141 221 162 360q5 28 5 52q0 18 -3 36q-1 9 -1 18q0 50 48 50q53 0 64 -98l2 -15q25 -219 53 -268q16 -29 16 -268q0 -219 -96 -443q-133 -305 -373 -305 q-139 0 -254 121q-98 105 -98 189z" />
<glyph unicode="z" horiz-adv-x="765" d="M-51 -10q0 57 100 145q164 143 332 266q188 139 199 150l10 8q-17 1 -36 1q-100 0 -253 -28q-141 -27 -203 -45q-4 -2 -12 -2q-57 0 -57 47q0 27 39 46q33 16 49 16q47 0 420 35q133 0 133 -68q0 -33 -86 -106l-121 -93l-279 -210q-141 -115 -153 -154q18 0 30 -2 q360 96 437 96q72 0 131 -26q88 -37 88 -107q0 -4 -17 -37q-14 0 -30 10q-14 8 -15 19q2 35 -29.5 52t-97.5 17q-102 0 -426 -108q-61 -20 -75 -21q-42 0 -42 41q0 6 1 13v6q-37 21 -37 39z" />
<glyph unicode="{" />
<glyph unicode="|" />
<glyph unicode="}" />
<glyph unicode="~" horiz-adv-x="612" d="M100 705q0 6 27 45q31 41 35 45q25 25 45 32q16 8 39 9q33 0 98 -48q55 -40 86 -30q12 6 43 30q27 25 41 25q10 0 18.5 -14.5t-2.5 -26.5q-63 -88 -124 -88q-20 0 -50 14l-59 39q-31 18 -55 19q-35 0 -66 -29q-6 -6 -13 -14l-13 -15q-16 -16 -29 -16q-21 0 -21 23z" />
<glyph unicode="&#xa2;" horiz-adv-x="665" d="M-63 604q0 104 86 275q94 186 217 266q23 94 49 158q10 23 37 22q20 0 34 -14q12 -12 7 -31q-14 -31 -33 -94q14 4 45 4q35 0 82 -23q70 -31 74 -75q4 -20 -16.5 -32.5t-26.5 -12.5q-20 0 -58 36q-35 35 -65 35q-20 0 -58 -14q-72 -291 -82 -617q150 57 250 213 q6 10 15 11q14 0 24 -17q10 -18 8 -24q-10 -33 -110 -131q-92 -92 -113 -103q-8 -6 -76 -41q0 -74 13 -164q6 -37 -21 -36q-25 0 -31 32q-10 78 -16 158l-41 -6q-98 0 -151 74q-43 61 -43 151zM14 592q0 -125 103 -125q20 0 53 4q-2 279 47 557q-82 -92 -145 -240 q-58 -128 -58 -196z" />
<glyph unicode="&#xa3;" />
<glyph unicode="&#xa5;" />
<glyph unicode="&#xa9;" />
<glyph unicode="&#xad;" horiz-adv-x="653" d="M20 403q6 29 142 60q94 20 168 26q61 6 112 -2q37 -8 88 -32q59 -33 52 -72l-27 -23q-25 8 -66 35q-27 16 -45 21q-31 6 -65 6q-63 0 -297 -68q-16 -4 -21 -4q-47 8 -41 53z" />
<glyph unicode="&#xae;" />
<glyph unicode="&#xb4;" />
<glyph unicode="&#x2000;" horiz-adv-x="663" />
<glyph unicode="&#x2001;" horiz-adv-x="1329" />
<glyph unicode="&#x2002;" horiz-adv-x="663" />
<glyph unicode="&#x2003;" horiz-adv-x="1329" />
<glyph unicode="&#x2004;" horiz-adv-x="442" />
<glyph unicode="&#x2005;" horiz-adv-x="331" />
<glyph unicode="&#x2006;" horiz-adv-x="221" />
<glyph unicode="&#x2007;" horiz-adv-x="221" />
<glyph unicode="&#x2008;" horiz-adv-x="163" />
<glyph unicode="&#x2009;" horiz-adv-x="264" />
<glyph unicode="&#x200a;" horiz-adv-x="71" />
<glyph unicode="&#x2010;" horiz-adv-x="653" d="M20 403q6 29 142 60q94 20 168 26q61 6 112 -2q37 -8 88 -32q59 -33 52 -72l-27 -23q-25 8 -66 35q-27 16 -45 21q-31 6 -65 6q-63 0 -297 -68q-16 -4 -21 -4q-47 8 -41 53z" />
<glyph unicode="&#x2011;" horiz-adv-x="653" d="M20 403q6 29 142 60q94 20 168 26q61 6 112 -2q37 -8 88 -32q59 -33 52 -72l-27 -23q-25 8 -66 35q-27 16 -45 21q-31 6 -65 6q-63 0 -297 -68q-16 -4 -21 -4q-47 8 -41 53z" />
<glyph unicode="&#x2012;" horiz-adv-x="653" d="M20 403q6 29 142 60q94 20 168 26q61 6 112 -2q37 -8 88 -32q59 -33 52 -72l-27 -23q-25 8 -66 35q-27 16 -45 21q-31 6 -65 6q-63 0 -297 -68q-16 -4 -21 -4q-47 8 -41 53z" />
<glyph unicode="&#x2013;" horiz-adv-x="800" d="M-2 399v11q6 29 162 59q109 20 192 27q131 8 228 -4q53 -10 100 -33q68 -35 59 -74l-30 -20q-35 10 -74 32q-33 20 -51 23q-37 6 -90 6q-213 0 -422 -64q-14 -4 -29 -4q-45 6 -45 41z" />
<glyph unicode="&#x2014;" horiz-adv-x="1101" d="M-47 399q0 6 2 11q8 29 209 59q141 20 254 27q283 12 405 -2q57 -6 123 -29q86 -31 86 -70q0 -4 -2 -8l-37 -18q-43 10 -90 32q-41 16 -72 21q-49 6 -122 6q-162 0 -359 -20q-209 -23 -307 -46q-18 -4 -33 -4q-57 6 -57 41z" />
<glyph unicode="&#x2018;" horiz-adv-x="210" d="M6 803q0 58 37 135q37 80 88 119q10 8 27 8q18 0 22 -18q2 -16 -18 -35q-53 -43 -53 -166q0 -31 2 -45.5t-21 -32.5q-25 -18 -47 -18q-37 0 -37 53z" />
<glyph unicode="&#x2019;" horiz-adv-x="241" d="M12 764q0 18 19 33q53 41 53 164q0 33 -2 47q-2 12 20 32q20 18 45 19q37 0 37 -55q0 -63 -34 -134q-37 -80 -89 -118q-14 -10 -24 -11q-25 0 -25 23z" />
<glyph unicode="&#x201c;" horiz-adv-x="251" d="M-4 788q0 55 37 134q39 82 88 120q10 8 24 9q20 0 23 -17q6 -20 -16 -37q-55 -43 -56 -166q0 -16 4 -45q2 -14 -20 -32q-25 -18 -47 -19q-37 0 -37 53zM125 788q0 55 37 134q39 82 88 120q10 8 24 9q23 0 25 -17q6 -18 -18 -37q-55 -43 -56 -166q0 -16 4 -45 q2 -12 -20 -32q-20 -18 -45 -19q-39 0 -39 53z" />
<glyph unicode="&#x201d;" horiz-adv-x="292" d="M-43 737q0 16 18 29q55 43 56 166q0 18 -4 47q-2 12 20 33q18 16 47 16q37 0 37 -53q0 -57 -37 -133q-39 -82 -88 -121q-10 -8 -24 -8q-25 -1 -25 24zM86 737q0 16 18 29q55 43 56 166q0 18 -4 47q-2 14 22 33q23 16 45 16q37 0 37 -53q0 -61 -35 -133q-37 -80 -90 -121 q-10 -8 -24 -8q-25 -1 -25 24z" />
<glyph unicode="&#x2022;" />
<glyph unicode="&#x2026;" horiz-adv-x="1067" d="M45 43q0 53 55 53q82 0 82 -45q0 -72 -59 -71q-27 0 -51 18q-27 20 -27 45zM463 43q0 53 55 53q80 0 80 -45q0 -72 -59 -71q-27 0 -50 16q-26 18 -26 47zM854 43q0 53 55 53q82 0 82 -45q0 -72 -61 -71q-25 0 -49 18q-27 20 -27 45z" />
<glyph unicode="&#x202f;" horiz-adv-x="264" />
<glyph unicode="&#x205f;" horiz-adv-x="331" />
<glyph unicode="&#x2122;" />
<glyph unicode="&#xe000;" horiz-adv-x="840" d="M0 840h840v-840h-840v840z" />
<glyph unicode="&#xfb01;" horiz-adv-x="790" d="M485 223q0 82 23 213q31 182 88 182q43 0 43 -49q0 -27 -27 -88q-29 -74 -41 -239q2 -40 2 -64.5t-2 -32.5l25 -120q25 -80 75 -80q12 0 17 4q12 18 37 31q20 -18 20 -33q0 -29 -35 -47q-29 -16 -49 -17q-92 0 -141 146q-35 100 -35 194zM551 901q0 18 16 39t39 21 q49 0 49 -58q0 -55 -51 -55q-22 0 -37 18q-16 21 -16 35zM-49 307q0 16 8 23q23 23 150 80l18 10q31 342 53 426q70 291 250 291q61 0 111 -70q43 -61 43 -123q0 -76 -33 -88q-20 6 -27 37q0 12 -2 24.5l-4 24.5q-6 43 -35 82q-31 49 -67 49q-102 0 -158 -246 q-27 -123 -43 -378q4 0 20.5 3t32.5 7q31 8 56 8q84 0 112 -66q4 -8 4 -24q0 -20 -12 -27q-14 -6 -37 21q-27 33 -69 32q-20 0 -68 -14q-39 -12 -49 -29q-6 -8 -6 -53q0 -70 14 -211q12 -121 12 -174q0 -66 -51 -65q-48 0 -48 56q0 6 1 13q0 14 2 15q0 86 -8 391 q-45 -23 -103 -58q-23 -14 -32 -14q-35 0 -35 47z" />
<glyph unicode="&#xfb02;" horiz-adv-x="808" d="M487 319q0 255 31 517q34 289 74 288q51 0 51 -57q0 -8 -6 -33l-13 -69q-18 -104 -24 -160q-29 -242 -29 -526q0 -356 125 -357q23 0 35 19h22l17 -19v2l2 -2q2 -6 2 -18q-33 -43 -84 -43q-74 0 -129 86q-61 94 -72 282q0 12 -1 43t-1 47zM-49 307q0 16 8 23 q23 23 150 80l18 10q31 342 53 426q70 291 250 291q61 0 111 -70q43 -61 43 -123q0 -76 -33 -88q-20 6 -27 37q0 12 -2 24.5l-4 24.5q-6 43 -35 82q-31 49 -67 49q-102 0 -158 -246q-27 -123 -43 -378q4 0 20.5 3t32.5 7q31 8 56 8q84 0 112 -66q4 -8 4 -24q0 -20 -12 -27 q-14 -6 -37 21q-27 33 -69 32q-20 0 -68 -14q-39 -12 -49 -29q-6 -8 -6 -53q0 -70 14 -211q12 -121 12 -174q0 -66 -51 -65q-48 0 -48 56q0 6 1 13q0 14 2 15q0 86 -8 391q-45 -23 -103 -58q-23 -14 -32 -14q-35 0 -35 47z" />
<glyph unicode="&#xfb03;" horiz-adv-x="1273" d="M969 223q0 82 23 213q31 182 88 182q43 0 43 -49q0 -27 -27 -88q-29 -74 -41 -239q2 -40 2 -64.5t-2 -32.5l25 -120q25 -80 75 -80q12 0 17 4q12 18 37 31q20 -18 20 -33q0 -29 -35 -47q-29 -16 -49 -17q-92 0 -141 146q-35 100 -35 194zM1035 901q0 18 16 39t39 21 q49 0 49 -58q0 -55 -51 -55q-22 0 -37 18q-16 21 -16 35zM434 307q0 16 8 23q23 23 150 80l18 10q31 342 53 426q70 291 250 291q61 0 111 -70q43 -61 43 -123q0 -76 -33 -88q-20 6 -27 37q0 12 -2 24.5l-4 24.5q-6 43 -35 82q-31 49 -67 49q-102 0 -158 -246 q-27 -123 -43 -378q4 0 20.5 3t32.5 7q31 8 56 8q84 0 112 -66q4 -8 4 -24q0 -20 -12 -27q-14 -6 -37 21q-27 33 -69 32q-20 0 -68 -14q-39 -12 -49 -29q-6 -8 -6 -53q0 -70 14 -211q12 -121 12 -174q0 -66 -51 -65q-48 0 -48 56q0 6 1 13q0 14 2 15q0 86 -8 391 q-45 -23 -103 -58q-23 -14 -32 -14q-35 0 -35 47zM-49 307q0 16 8 23q23 23 150 80l18 10q31 342 53 426q70 291 250 291q61 0 111 -70q43 -61 43 -123q0 -76 -33 -88q-20 6 -27 37q0 12 -2 24.5l-4 24.5q-6 43 -35 82q-31 49 -67 49q-102 0 -158 -246q-27 -123 -43 -378 q4 0 20.5 3t32.5 7q31 8 56 8q84 0 112 -66q4 -8 4 -24q0 -20 -12 -27q-14 -6 -37 21q-27 33 -69 32q-20 0 -68 -14q-39 -12 -49 -29q-6 -8 -6 -53q0 -70 14 -211q12 -121 12 -174q0 -66 -51 -65q-48 0 -48 56q0 6 1 13q0 14 2 15q0 86 -8 391q-45 -23 -103 -58 q-23 -14 -32 -14q-35 0 -35 47z" />
<glyph unicode="&#xfb04;" horiz-adv-x="1292" d="M971 319q0 255 31 517q34 289 74 288q51 0 51 -57q0 -8 -6 -33l-13 -69q-18 -104 -24 -160q-29 -242 -29 -526q0 -356 125 -357q23 0 35 19h22l17 -19v2l2 -2q2 -6 2 -18q-33 -43 -84 -43q-74 0 -129 86q-61 94 -72 282q0 12 -1 43t-1 47zM434 307q0 16 8 23 q23 23 150 80l18 10q31 342 53 426q70 291 250 291q61 0 111 -70q43 -61 43 -123q0 -76 -33 -88q-20 6 -27 37q0 12 -2 24.5l-4 24.5q-6 43 -35 82q-31 49 -67 49q-102 0 -158 -246q-27 -123 -43 -378q4 0 20.5 3t32.5 7q31 8 56 8q84 0 112 -66q4 -8 4 -24q0 -20 -12 -27 q-14 -6 -37 21q-27 33 -69 32q-20 0 -68 -14q-39 -12 -49 -29q-6 -8 -6 -53q0 -70 14 -211q12 -121 12 -174q0 -66 -51 -65q-48 0 -48 56q0 6 1 13q0 14 2 15q0 86 -8 391q-45 -23 -103 -58q-23 -14 -32 -14q-35 0 -35 47zM-49 307q0 16 8 23q23 23 150 80l18 10 q31 342 53 426q70 291 250 291q61 0 111 -70q43 -61 43 -123q0 -76 -33 -88q-20 6 -27 37q0 12 -2 24.5l-4 24.5q-6 43 -35 82q-31 49 -67 49q-102 0 -158 -246q-27 -123 -43 -378q4 0 20.5 3t32.5 7q31 8 56 8q84 0 112 -66q4 -8 4 -24q0 -20 -12 -27q-14 -6 -37 21 q-27 33 -69 32q-20 0 -68 -14q-39 -12 -49 -29q-6 -8 -6 -53q0 -70 14 -211q12 -121 12 -174q0 -66 -51 -65q-48 0 -48 56q0 6 1 13q0 14 2 15q0 86 -8 391q-45 -23 -103 -58q-23 -14 -32 -14q-35 0 -35 47z" />
</font>
</defs>
</svg>
